<?xml version="1.0" encoding="UTF-8" standalone="no"?>
<!-- Created with Inkscape (http://www.inkscape.org/) -->

<svg
   xmlns:dc="http://purl.org/dc/elements/1.1/"
   xmlns:cc="http://creativecommons.org/ns#"
   xmlns:rdf="http://www.w3.org/1999/02/22-rdf-syntax-ns#"
   xmlns:svg="http://www.w3.org/2000/svg"
   xmlns="http://www.w3.org/2000/svg"
   xmlns:sodipodi="http://sodipodi.sourceforge.net/DTD/sodipodi-0.dtd"
   xmlns:inkscape="http://www.inkscape.org/namespaces/inkscape"
   width="777.09003"
   height="359"
   id="svg2"
   version="1.1"
   inkscape:version="0.47 r22583"
   sodipodi:docname="preta.svg">
  <defs
     id="defs4">
    <marker
       inkscape:stockid="Arrow2Lend"
       orient="auto"
       refY="0"
       refX="0"
       id="Arrow2Lend"
       style="overflow:visible">
      <path
         id="path4162"
         style="font-size:12px;fill-rule:evenodd;stroke-width:0.625;stroke-linejoin:round"
         d="M 8.7185878,4.0337352 -2.2072895,0.01601326 8.7185884,-4.0017078 c -1.7454984,2.3720609 -1.7354408,5.6174519 -6e-7,8.035443 z"
         transform="matrix(-1.1,0,0,-1.1,-1.1,0)" />
    </marker>
  </defs>
  <sodipodi:namedview
     id="base"
     pagecolor="#ffffff"
     bordercolor="#666666"
     borderopacity="1.0"
     inkscape:pageopacity="0.0"
     inkscape:pageshadow="2"
     inkscape:zoom="0.49497475"
     inkscape:cx="662.10932"
     inkscape:cy="193.52949"
     inkscape:document-units="px"
     inkscape:current-layer="layer1"
     showgrid="false"
     showborder="true"
     inkscape:window-width="1198"
     inkscape:window-height="1286"
     inkscape:window-x="0"
     inkscape:window-y="338"
     inkscape:window-maximized="0"
     inkscape:showpageshadow="true" />
  <metadata
     id="metadata7">
    <rdf:RDF>
      <cc:Work
         rdf:about="">
        <dc:format>image/svg+xml</dc:format>
        <dc:type
           rdf:resource="http://purl.org/dc/dcmitype/StillImage" />
        <dc:title></dc:title>
      </cc:Work>
    </rdf:RDF>
  </metadata>
  <g
     inkscape:label="Layer 1"
     inkscape:groupmode="layer"
     id="layer1"
     transform="translate(0,-693.36183)">
    <text
       xml:space="preserve"
       style="font-size:40px;font-style:normal;font-weight:normal;text-align:justify;text-anchor:start;fill:#000000;fill-opacity:1;stroke:none;font-family:Consolas;-inkscape-font-specification:Consolas"
       x="440.76324"
       y="672.03949"
       id="text3755"><tspan
         sodipodi:role="line"
         id="tspan3757"
         x="440.76324"
         y="672.03949"></tspan></text>
    <g
       id="g3865"
       transform="translate(-634.56943,430.61714)" />
    <g
       transform="matrix(0.47730333,0,0,0.46234369,422.50881,817.98241)"
       id="g4673" />
    <rect
       style="fill:none;stroke:#000000;stroke-width:2.5;stroke-linecap:round;stroke-linejoin:round;stroke-miterlimit:4;stroke-opacity:1;stroke-dasharray:none;stroke-dashoffset:0"
       id="rect6147"
       width="384.89697"
       height="312.04495"
       x="243.23441"
       y="717.14893"
       rx="18.182743"
       ry="18.182743" />
    <path
       style="fill:none;stroke:#000000;stroke-width:2.5;stroke-linecap:butt;stroke-linejoin:miter;stroke-miterlimit:4;stroke-opacity:1;stroke-dasharray:2.49999999, 2.49999999;stroke-dashoffset:0;marker-start:none"
       d="m 476.81663,715.97673 0,312.85767"
       id="path6180" />
    <path
       id="path6364"
       d="m 244.53275,789.19129 383.85348,0"
       style="fill:none;stroke:#000000;stroke-width:2.5;stroke-linecap:butt;stroke-linejoin:miter;stroke-miterlimit:4;stroke-opacity:1;stroke-dasharray:none;stroke-dashoffset:0;marker-start:none" />
    <path
       style="fill:none;stroke:#000000;stroke-width:2.5;stroke-linecap:butt;stroke-linejoin:miter;stroke-miterlimit:4;stroke-opacity:1;stroke-dasharray:none;stroke-dashoffset:0;marker-start:none"
       d="m 244.53275,849.19129 383.85348,0"
       id="path6366" />
    <path
       id="path6368"
       d="m 244.53275,909.19129 383.85348,0"
       style="fill:none;stroke:#000000;stroke-width:2.5;stroke-linecap:butt;stroke-linejoin:miter;stroke-miterlimit:4;stroke-opacity:1;stroke-dasharray:none;stroke-dashoffset:0;marker-start:none" />
    <path
       style="fill:none;stroke:#000000;stroke-width:2.5;stroke-linecap:butt;stroke-linejoin:miter;stroke-miterlimit:4;stroke-opacity:1;stroke-dasharray:none;stroke-dashoffset:0;marker-start:none"
       d="m 244.53275,969.19129 383.85348,0"
       id="path6370" />
    <text
       xml:space="preserve"
       style="font-size:28.92465973px;font-style:normal;font-weight:normal;text-align:justify;text-anchor:start;fill:#000000;fill-opacity:1;stroke:none;font-family:Consolas;-inkscape-font-specification:Consolas"
       x="488.00745"
       y="1007.5612"
       id="text6374"><tspan
         sodipodi:role="line"
         id="tspan6376"
         x="488.00745"
         y="1007.5612">q97eB34h</tspan></text>
    <g
       id="g6406"
       transform="translate(228.31911,260.91151)">
      <path
         d="m 294.14586,603.50805 c 1.30132,-0.343 2.65448,-0.38008 3.98466,-0.4438 1.9878,-0.0256 3.93318,0.46408 5.86243,0.94887 2.21436,0.62821 4.20779,1.91361 6.14054,3.25932 1.7865,1.42688 3.51029,2.95196 5.23892,4.46814 1.85695,1.60867 3.85214,3.00636 5.89675,4.27862 2.27367,1.33214 4.68792,2.30109 7.04821,3.40618 2.19124,1.05414 4.2735,2.37813 6.36715,3.66009 1.58009,1.10277 3.3154,1.75185 5.07554,2.34825 1.41434,0.46609 2.83446,0.89535 4.31105,0.94815 1.10185,0.0738 2.05737,-0.54578 3.01176,-1.08347 1.75391,-1.1588 -1.42707,0.94345 -3.21328,2.10579 -0.7563,0.49216 0.68576,-0.5072 0.85668,-0.6622 0,0 4.26557,-2.01191 4.26557,-2.01191 l 0,0 c -0.25669,0.33927 -0.50039,0.54695 -0.83986,0.77312 -4.37575,2.9152 -2.81009,1.99276 -4.65439,3.06747 -0.98537,0.53428 -1.99721,0.97401 -3.11166,0.83653 -1.48328,-0.14793 -2.92055,-0.56278 -4.33989,-1.07107 -1.77427,-0.61454 -3.49663,-1.35008 -5.08785,-2.46278 -2.07219,-1.27386 -4.11355,-2.6327 -6.29713,-3.64824 -2.38058,-1.09546 -4.80717,-2.08281 -7.08496,-3.44579 -2.07284,-1.28281 -4.0862,-2.71159 -5.98442,-4.31107 -1.7041,-1.51533 -3.39313,-3.06 -5.18279,-4.44225 -1.90551,-1.32676 -3.88964,-2.53406 -6.08429,-3.09975 -1.91117,-0.47894 -3.84803,-0.91417 -5.81571,-0.82041 -1.34837,0.0859 -2.73127,0.1518 -4.0203,0.65317 0,0 3.65727,-3.25096 3.65727,-3.25096 z"
         id="path6384"
         style="fill:#4e4e4e;fill-opacity:1;stroke:none" />
      <path
         d="m 339.16426,603.15694 c -1.48647,-0.15747 -2.92898,0.52308 -4.34107,1.12522 -0.3897,0.20629 -0.78365,0.39553 -1.16909,0.61886 -0.93192,0.53999 -1.79853,1.12814 -2.69239,1.79795 -0.45364,0.33994 -1.80153,1.39718 -1.3462,1.06227 0.4807,-0.35355 1.41679,-1.91643 1.42234,-1.11827 0.006,0.85544 -0.94666,0.97017 -1.42,1.45527 -2.91407,3.15518 -5.5295,6.86004 -8.23922,10.38272 -2.22224,2.89922 -4.59969,5.51319 -7.00008,8.07161 -3.0719,3.15174 -6.30151,5.98066 -9.69813,8.28418 -1.66936,1.02254 -3.42092,1.64642 -5.21233,1.9213 -0.79962,0.1162 -1.61627,0.18265 -2.35253,-0.35673 -0.0768,-0.0612 -0.15361,-0.12238 -0.23041,-0.18358 0,0 3.00582,-2.93515 3.00582,-2.93515 l 0,0 c 0.0712,0.0528 0.14226,0.10573 0.21338,0.15859 0.69936,0.38884 1.4555,0.28293 2.18583,0.19586 1.7354,-0.28401 3.43404,-0.89564 5.04036,-1.93462 0.36819,-0.25348 0.7395,-0.4971 1.10454,-0.76046 0.38875,-0.28046 1.4986,-1.26331 1.15645,-0.87072 -0.53002,0.60819 -1.15009,1.01909 -1.72661,1.52495 -0.3696,0.32431 0.74026,-0.64615 1.10589,-0.9803 1.0992,-1.00453 1.20619,-1.13936 2.28358,-2.22677 2.42868,-2.56508 4.83844,-5.17916 7.09496,-8.07736 2.72467,-3.49911 5.32576,-7.22677 8.21789,-10.42603 3.38609,-3.54829 7.00941,-6.72879 10.95072,-8.69381 1.48787,-0.64152 2.99323,-1.26209 4.5575,-1.18376 0,0 -2.9112,3.14878 -2.9112,3.14878 z"
         id="path6386"
         style="fill:#4e4e4e;fill-opacity:1;stroke:#4e4e4e;stroke-width:1.75;stroke-linecap:round;stroke-linejoin:round;stroke-miterlimit:4;stroke-opacity:1;stroke-dasharray:none;stroke-dashoffset:0" />
    </g>
    <text
       xml:space="preserve"
       style="font-size:40px;font-style:normal;font-weight:normal;text-align:justify;text-anchor:start;fill:#000000;fill-opacity:1;stroke:none;font-family:Consolas;-inkscape-font-specification:Consolas"
       x="270.64401"
       y="770.23755"
       id="text6390"><tspan
         sodipodi:role="line"
         id="tspan6392"
         x="270.64401"
         y="770.23755"
         style="font-family:Times New Roman;-inkscape-font-specification:Times New Roman">Lannister</tspan></text>
    <text
       id="text6394"
       y="833.22742"
       x="270.64401"
       style="font-size:40px;font-style:normal;font-weight:normal;text-align:justify;text-anchor:start;fill:#000000;fill-opacity:1;stroke:none;font-family:Consolas;-inkscape-font-specification:Consolas"
       xml:space="preserve"><tspan
         style="font-family:Times New Roman;-inkscape-font-specification:Times New Roman"
         y="833.22742"
         x="270.64401"
         id="tspan6396"
         sodipodi:role="line">Stark</tspan></text>
    <text
       xml:space="preserve"
       style="font-size:40px;font-style:normal;font-weight:normal;text-align:justify;text-anchor:start;fill:#000000;fill-opacity:1;stroke:none;font-family:Consolas;-inkscape-font-specification:Consolas"
       x="270.64401"
       y="891.22742"
       id="text6398"><tspan
         sodipodi:role="line"
         id="tspan6400"
         x="270.64401"
         y="891.22742"
         style="font-family:Times New Roman;-inkscape-font-specification:Times New Roman">Targaryen</tspan></text>
    <text
       id="text6402"
       y="953.24768"
       x="270.64401"
       style="font-size:40px;font-style:normal;font-weight:normal;text-align:justify;text-anchor:start;fill:#000000;fill-opacity:1;stroke:none;font-family:Consolas;-inkscape-font-specification:Consolas"
       xml:space="preserve"><tspan
         style="font-family:Times New Roman;-inkscape-font-specification:Times New Roman"
         y="953.24768"
         x="270.64401"
         id="tspan6404"
         sodipodi:role="line">Baratheon</tspan></text>
    <text
       xml:space="preserve"
       style="font-size:27.72634697px;font-style:normal;font-weight:normal;text-align:justify;text-anchor:start;fill:#000000;fill-opacity:1;stroke:none;font-family:Consolas;-inkscape-font-specification:Consolas"
       x="680.98737"
       y="1008.1371"
       id="text6410"><tspan
         sodipodi:role="line"
         id="tspan6412"
         x="680.98737"
         y="1008.1371"
         style="font-family:Arial;-inkscape-font-specification:Arial">Onion</tspan></text>
    <path
       style="fill:none;stroke:#000000;stroke-width:1.25;stroke-linecap:round;stroke-linejoin:round;stroke-miterlimit:4;stroke-opacity:1;stroke-dasharray:none;marker-end:url(#Arrow2Lend)"
       d="m 670.93924,998.5344 -32.82996,0"
       id="path6414"
       sodipodi:nodetypes="cc" />
    <text
       id="text6602"
       y="890.13715"
       x="680.98737"
       style="font-size:27.72634697px;font-style:normal;font-weight:normal;text-align:justify;text-anchor:start;fill:#000000;fill-opacity:1;stroke:none;font-family:Consolas;-inkscape-font-specification:Consolas"
       xml:space="preserve"><tspan
         style="font-family:Arial;-inkscape-font-specification:Arial"
         y="890.13715"
         x="680.98737"
         id="tspan6604"
         sodipodi:role="line">Vote</tspan></text>
    <path
       sodipodi:nodetypes="cc"
       id="path6606"
       d="m 670.93924,880.53437 -32.82996,-10e-6"
       style="fill:none;stroke:#000000;stroke-width:1.25;stroke-linecap:round;stroke-linejoin:round;stroke-miterlimit:4;stroke-opacity:1;stroke-dasharray:none;marker-end:url(#Arrow2Lend)" />
    <text
       xml:space="preserve"
       style="font-size:27.72634697px;font-style:normal;font-weight:normal;text-align:end;text-anchor:end;fill:#000000;fill-opacity:1;stroke:none;font-family:Consolas;-inkscape-font-specification:Consolas"
       x="167.6174"
       y="849.97076"
       id="text6410-9"><tspan
         sodipodi:role="line"
         x="167.6174"
         y="849.97076"
         style="text-align:end;text-anchor:end;font-family:Arial;-inkscape-font-specification:Arial"
         id="tspan6703">Candidate</tspan><tspan
         sodipodi:role="line"
         x="167.6174"
         y="884.62872"
         style="text-align:end;text-anchor:end;font-family:Arial;-inkscape-font-specification:Arial"
         id="tspan6709">permutation</tspan></text>
    <path
       sodipodi:nodetypes="cc"
       id="path6606-8"
       d="m 181.58023,758.09605 32.82997,-10e-6"
       style="fill:none;stroke:#000000;stroke-width:1.25;stroke-linecap:round;stroke-linejoin:round;stroke-miterlimit:4;stroke-opacity:1;stroke-dasharray:none;marker-end:url(#Arrow2Lend)" />
    <path
       style="fill:none;stroke:#000000;stroke-width:1.25;stroke-linecap:round;stroke-linejoin:round;stroke-miterlimit:4;stroke-opacity:1;stroke-dasharray:none;marker-end:url(#Arrow2Lend)"
       d="m 181.58023,818.09605 32.82997,-10e-6"
       id="path6695"
       sodipodi:nodetypes="cc" />
    <path
       sodipodi:nodetypes="cc"
       id="path6697"
       d="m 181.58023,878.09605 32.82997,-10e-6"
       style="fill:none;stroke:#000000;stroke-width:1.25;stroke-linecap:round;stroke-linejoin:round;stroke-miterlimit:4;stroke-opacity:1;stroke-dasharray:none;marker-end:url(#Arrow2Lend)" />
    <path
       style="fill:none;stroke:#000000;stroke-width:1.25;stroke-linecap:round;stroke-linejoin:round;stroke-miterlimit:4;stroke-opacity:1;stroke-dasharray:none;marker-end:url(#Arrow2Lend)"
       d="m 181.58023,938.09605 32.82997,-10e-6"
       id="path6699"
       sodipodi:nodetypes="cc" />
    <path
       style="fill:none;stroke:#000000;stroke-width:1px;stroke-linecap:round;stroke-linejoin:round;stroke-opacity:1"
       d="m 181.3581,938.05141 0,-180.11831"
       id="path6701" />
  </g>
</svg>
